<svg xmlns="http://www.w3.org/2000/svg" width="34" height="62" viewBox="0 0 34 62" fill="none">
<path d="M33.3538 54.7293C33.7566 54.3265 33.7566 53.6735 33.3538 53.2707L26.7903 46.7072C26.3876 46.3045 25.7346 46.3045 25.3318 46.7072C24.929 47.11 24.929 47.763 25.3318 48.1658L31.166 54L25.3318 59.8342C24.929 60.237 24.929 60.89 25.3318 61.2928C25.7346 61.6955 26.3876 61.6955 26.7903 61.2928L33.3538 54.7293ZM32.6245 52.9686C20.7442 52.9686 12.8938 50.7042 8.24973 47.2235C3.6799 43.7984 2.11036 39.1196 2.92625 33.8718C3.75258 28.5569 7.04195 22.631 12.2973 16.9732C17.5403 11.3288 24.6792 6.01856 33.0758 1.92714L32.1723 0.072859C23.5671 4.26592 16.2166 9.72295 10.786 15.5694C5.36792 21.4024 1.79974 27.6909 0.888035 33.5549C-0.0341005 39.486 1.77785 44.9505 7.01263 48.874C12.1732 52.7419 20.5505 55.0314 32.6245 55.0314V52.9686Z" fill="black"/>
</svg>